<svg id="Layer_1" data-name="Layer 1" xmlns="http://www.w3.org/2000/svg" viewBox="0 0 267.62 265.12"><defs><style>.cls-1{fill:#fff;}</style></defs><path class="cls-1" d="M7338.86,7165.06c.91,74.49-59.18,133.78-131.84,134.4-79.9.68-135.56-64.67-135.77-128.91-.26-79.49,66.12-136,134.8-136.21C7278.86,7034.16,7339.68,7090.81,7338.86,7165.06Zm-136.44,119.49c67.07,2.08,119.92-51.38,122.42-113.13,2.67-66-47.71-120.31-112.6-122.6-66.61-2.34-124.15,49.5-126.56,113.88C7083.38,7224.28,7132.36,7282.52,7202.42,7284.55Z" transform="translate(-7071.25 -7034.34)"/><path class="cls-1" d="M7163.34,7161.05c11.49,0,22.45-.08,33.41.14.95,0,2.54,1.92,2.67,3.08a89.48,89.48,0,0,1,.14,10c0,33.62-.1,67.23,0,100.85,0,4.31-1.19,5.81-5.45,4.8-9-2.14-18.17-4-27.13-6.38-1.55-.42-3.51-3.16-3.52-4.84-.3-34.95-.34-69.9-.42-104.85C7163.07,7163,7163.22,7162.22,7163.34,7161.05Zm6.68,6.1-1.43,1.63c.68,2.32.68,5.62,2.22,6.69s5,.63,6.94-.44c1-.57,1.3-5.28.59-5.65C7175.88,7168.06,7172.84,7167.81,7170,7167.15Zm22.15.89h-8.3c-1,8.18-.22,8.85,8.3,7.35Zm-7.59,13.16-1.5,1.45c.66,2.48.74,5.42,2.21,7.25.77,1,4.88.8,5.83-.29,1.18-1.37,1.65-5.3.67-6.18C7190.1,7181.9,7187.06,7181.86,7184.58,7181.2Zm-10.9,8.89c3,.47,4.65-.46,4.51-3.91-.12-2.8-.35-4.7-4-4.56-3.09.12-5,.55-4.86,4.3C7169.45,7189.05,7170.42,7190.61,7173.68,7190.09Z" transform="translate(-7071.25 -7034.34)"/><path class="cls-1" d="M7214,7159.53h37.8a36.93,36.93,0,0,1,.38,3.78c-.12,34.26-.32,68.52-.33,102.78,0,3.56-1,5.59-4.5,6.52-10.87,2.9-21.7,5.92-33.35,9.12Zm6.31,30c4.84-1,8.15-1.29,10.95-2.62.68-.32.43-5.44-.7-6.1-2-1.17-5.87-1.68-7.36-.48C7221.45,7181.68,7221.48,7185.21,7220.27,7189.5Zm11.39,32.38c-4.34.87-7.69.89-10.14,2.38-1,.58-.7,5.94.45,6.58,2.12,1.2,6.23,1.65,7.78.35S7231,7226,7231.66,7221.88Zm3.68-32.43c4.52-.88,7.8-.83,10.11-2.31,1-.61.73-5.47-.54-6.59-1.43-1.25-5.69-1.48-6.86-.3C7236.39,7181.91,7236.43,7185.27,7235.34,7189.45Zm-4.76,27.34c1.93-8.5,0-10-9-7.33v7.33Zm10.74,5.92c-3.22-.73-5.1.11-5,4.17.11,3.28.41,5.34,4.51,5.08,3.13-.2,5.42-.23,5.24-4.42C7246,7224.25,7245.64,7221.85,7241.32,7222.71Zm-14.73-19.94c3.44.64,5-.61,5-4.48,0-4.15-2.39-3.84-5.19-4-3.5-.2-5.14.73-5.13,4.65C7221.26,7203.09,7223.61,7203.05,7226.59,7202.77Zm9.4-.21h10.54c-.55-2.92-.21-6.53-1.67-7.54-1.76-1.22-5.74-1.16-7.47.11C7236,7196.18,7236.42,7199.78,7236,7202.56Zm1,13.94c9.12,1.6,10.09.81,8.62-7C7236.6,7207.4,7234.93,7208.75,7237,7216.5Z" transform="translate(-7071.25 -7034.34)"/><path class="cls-1" d="M7108.73,7177.57h40.84v89.49c-8-5.85-15-11-22-16.09-.93-.68-1.68-1.61-2.57-2.35-11.68-9.77-18.6-21.2-16.55-37.49C7109.82,7200.35,7108.73,7189.27,7108.73,7177.57Zm24.72,21.14c-1.2,9-.39,9.68,9.19,7.93v-7.93Zm-15.55-1.07c.67,4.09.24,8,1.74,9,1.85,1.25,5.58.75,7.94-.27.95-.42,1.28-5.7.43-6.19C7125.48,7198.73,7122.23,7198.58,7117.9,7197.64Zm24.54,13.55c-3.59.74-6.64.81-9,2.14-.85.48-.65,5.41.24,5.82,2.47,1.16,5.55,1,8.73,1.43Zm-8.59-27.18-1.38,1.38c.51,2.39.32,6.15,1.7,6.86,2.12,1.09,5.51.6,8-.3.84-.31,1.22-5.35.57-5.66C7140,7185,7136.84,7184.68,7133.85,7184Zm-5.76,28.6c-2.06-.09-3.53-.24-5-.21s-2.84.24-4.15.36c-1.34,8.07-.58,8.64,9.15,7Zm.82-27.26-1.51-1.33c-2.85.67-5.94.9-8.41,2.26-.76.43-.5,5.27.43,5.71,2.17,1,5.76,1.67,7.4.51S7128.28,7187.83,7128.91,7185.35Z" transform="translate(-7071.25 -7034.34)"/><path class="cls-1" d="M7312.33,7175.94c-15.21-7-30.65-13.51-45.58-21-19-9.58-37.64-19.9-56.33-30.08-3-1.64-5.09-1.44-8.12.16q-44.18,23.19-88.57,45.93c-2.75,1.42-5.75,2.34-8.63,3.49l-.67-1.09c6.66-4.75,13.23-9.62,20-14.21,25.72-17.48,51.53-34.84,77.25-52.34,2.82-1.92,5.18-2.34,8.15-.38q50.58,33.42,101.23,66.75a19.57,19.57,0,0,1,1.85,1.58Z" transform="translate(-7071.25 -7034.34)"/><path class="cls-1" d="M7127.61,7144q26.1-18,52.2-35.93c7.93-5.48,15.92-10.91,23.64-16.68,2.42-1.81,3.94-1.49,6.12,0q30.77,21.34,61.61,42.57c7.22,5,14.48,9.92,21.29,15.62-8.85-5.09-17.75-10.08-26.53-15.28-17.62-10.44-35.24-20.85-52.67-31.58-4.16-2.56-7.2-2.18-11.26.15-23.79,13.7-47.76,27.1-71.67,40.59-.81.46-1.7.77-2.56,1.15Z" transform="translate(-7071.25 -7034.34)"/><path class="cls-1" d="M7295.7,7182.24c-1.19-6.43-.69-6.85,6.88-5.78v5.78Z" transform="translate(-7071.25 -7034.34)"/><path class="cls-1" d="M7295.56,7195.13v-5.84h6C7303.34,7195.23,7302.81,7195.81,7295.56,7195.13Z" transform="translate(-7071.25 -7034.34)"/><path class="cls-1" d="M7271.37,7222l-6.13.5c-1.46-6.48-1-6.93,6-5.94a25.21,25.21,0,0,1,.35,2.64A26.26,26.26,0,0,1,7271.37,7222Z" transform="translate(-7071.25 -7034.34)"/><path class="cls-1" d="M7295.5,7215.93h6.35c.9,5.64.9,5.64-6.35,5.26Z" transform="translate(-7071.25 -7034.34)"/><path class="cls-1" d="M7264.92,7236.36V7229c2.28.39,4.33.47,6.09,1.23.51.23.71,3.11.13,3.54C7269.63,7234.87,7267.62,7235.3,7264.92,7236.36Z" transform="translate(-7071.25 -7034.34)"/><path class="cls-1" d="M7271.34,7248.68l-5.64.61c-1.8-6.45-1.33-7,5.64-6.48Z" transform="translate(-7071.25 -7034.34)"/><path class="cls-1" d="M7265.13,7189.1c2.67.87,4.65,1.27,6.33,2.21.45.25.33,2.93-.14,3.14a35.37,35.37,0,0,1-6.19,1.6Z" transform="translate(-7071.25 -7034.34)"/><path class="cls-1" d="M7271.41,7203.25v5.36l-5.81.4C7263.82,7203.09,7264.32,7202.57,7271.41,7203.25Z" transform="translate(-7071.25 -7034.34)"/><path class="cls-1" d="M7265,7176.93h6.46v5.4h-6.2C7265.15,7180.68,7265.08,7179.1,7265,7176.93Z" transform="translate(-7071.25 -7034.34)"/><path class="cls-1" d="M7265.36,7262.18c-.18-2.64-1.84-5.62,2.36-6.13,1.28-.15,3.87.89,3.87,1.37C7271.56,7261.23,7268.73,7261.87,7265.36,7262.18Z" transform="translate(-7071.25 -7034.34)"/><path class="cls-1" d="M7295.4,7207.73c-.1-2.18-1.53-5,2.74-5.14,2.15-.08,4.7.17,3.71,2.89-.62,1.68-3.28,2.61-5,3.88C7296.35,7208.82,7295.88,7208.27,7295.4,7207.73Z" transform="translate(-7071.25 -7034.34)"/><path class="cls-1" d="M7286.66,7219.43l-4.15,2.84c-.68-1.05-2-2.16-1.87-3.13a3.83,3.83,0,0,1,2.42-2.65C7283.76,7216.33,7284.85,7217.88,7286.66,7219.43Z" transform="translate(-7071.25 -7034.34)"/><path class="cls-1" d="M7280,7207.65l2.53-4.61,3.13,2.71-3.41,3.62Z" transform="translate(-7071.25 -7034.34)"/><path class="cls-1" d="M7295.6,7234.29v-5.7l7-.45-5.76,6.94Z" transform="translate(-7071.25 -7034.34)"/><path class="cls-1" d="M7286.66,7231.85l-3.87,2.8c-.73-1-1.95-2-2-3-.07-.79,1.38-2.42,2.08-2.39C7283.85,7229.27,7284.8,7230.48,7286.66,7231.85Z" transform="translate(-7071.25 -7034.34)"/><path class="cls-1" d="M7282.8,7175c1.38,2.2,2.53,3.23,2.36,4-.23,1.08-1.42,1.95-2.19,2.92-.69-.88-1.78-1.7-1.94-2.66S7281.76,7177.33,7282.8,7175Z" transform="translate(-7071.25 -7034.34)"/></svg>