<svg xmlns="http://www.w3.org/2000/svg" width="97" height="22" viewBox="0 0 97 22">
    <path fill="#FFF" fill-rule="evenodd" d="M72.092 1.19c-1.072 0-1.97.886-1.97 1.974 0 1.089.898 2 1.97 2 1.047 0 1.945-.911 1.945-2 0-1.088-.898-1.974-1.945-1.974zM90.391 9.72c1.87 0 2.942 1.62 2.942 3.342h-6.184c.05-1.62 1.447-3.342 3.242-3.342zm.224 9.62c-1.92 0-3.54-1.62-3.566-3.898h9.5c.15-5.772-2.443-8.228-6.133-8.228-3.865 0-6.533 3.19-6.533 7.392 0 4.355 2.468 7.393 6.433 7.393 2.518 0 4.688-1.342 5.81-3.013l-1.92-1.822c-.649 1.19-2.145 2.177-3.591 2.177zm-20.118 2.33h3.191V7.544h-3.191V21.67zm9.996-14.127V4.81c0-1.215.798-1.95 1.77-1.95.624 0 1.272.254 1.696.507l.972-2.43C84.258.581 83.136.201 81.79.201c-2.892 0-4.363 2.101-4.363 4.43v2.912h-1.869v2.582h1.87v11.545h3.066V10.126h2.918l.723-2.582h-3.64zM64.04 21.67h3.067V0L64.04 3.088v18.583zM29.493 17.57c-.749.962-1.946 1.924-3.392 1.924-1.222 0-2.169-.76-2.169-1.874 0-1.57 1.596-2.227 3.416-2.456l2.095-.253h.05v2.659zm-1.97-10.355c-2.469 0-4.364.987-5.436 2.405l1.745 2.101c.549-.885 2.02-2 3.541-2 1.322 0 2.194.684 2.194 1.62 0 .76-.399 1.393-1.52 1.494l-1.148.127c-2.942.329-5.959 1.52-5.959 4.784 0 2.684 2.02 4.254 4.463 4.254 2.12 0 3.317-1.038 4.065-1.924v1.595h3.091v-10c0-2.785-1.845-4.456-5.036-4.456zm30.064 10.279c-.873.987-1.995 1.772-3.192 1.772-1.446 0-2.145-1.14-2.145-2.785V7.544h-3.066v9.95c0 3.544 2.493 4.506 4.288 4.506 1.796 0 3.167-1.038 4.015-1.848v1.519h3.166V7.544h-3.066v9.95zM42.905 7.214c-1.795 0-3.441.912-4.538 1.925V7.544H35.3V21.67h3.067V11.519c.698-.658 2.194-1.67 3.366-1.67 1.421 0 1.995 1.189 1.995 2.581v9.241h3.066v-10.05c0-3.444-2.243-4.406-3.89-4.406zM9.35 11.71H9.3L3.614 2.063H0v19.608h3.341V7.785h.05l5.884 9.874 5.86-9.874h.05v13.886h3.366V2.063h-3.54L9.35 11.71z"/>
</svg>
